<?xml version="1.0" encoding="UTF-8"?>
<svg id="Livello_1" data-name="Livello 1" xmlns="http://www.w3.org/2000/svg" viewBox="0 0 632.28 1080.96">
  <defs>
    <style>
      .cls-1 {
        fill: #1d1d1b;
      }
    </style>
  </defs>
  <path class="cls-1" d="M353.88,1080.46c-77.75-.14-131.78-77.81-154.93-111.09-25.77-37.05-76.09-109.38-75.45-197.61.16-22.58,5.07-61.22-20.24-88.75-12.16-13.23-29.75-20.02-43.62-31.46-7.25-5.98-34.14-30.07-43.73-105.41-36.2-284.42,2.74-410.72,2.63-493.27-.01-9.91-.63-41.82,16.24-50.31C39.64.11,44.34.41,46.29.56c59.09,4.57,144.59,100.65,144.59,100.66,73.97,83.13,86.44,111.69,130.44,122.95,34.46,8.82,61.3.12,66.72-1.74,35.15-12.04,62.12-41.87,66.13-60.33.45-2.08,1.9-9.95,6.16-19.8,0,0,.01-.03.02-.03,0,0,14.54-27.01,41.71-53.32,17.54-16.99,56.3-46.79,112.37-76.29,0,0,19.42,478.81,17.17,536.42-.71,18.14-.66,54.69-24.13,88.93-10.62,15.49-25.7,27.43-36.86,42.53-36.01,48.73-11.42,96.63-26.28,164.07-6.38,28.94-21.98,70.12-64.95,115.49-.51,9.88-3.87,54.65-40.65,88.16-2.48,2.26-36.42,32.29-84.85,32.2Z"/>
  <path class="cls-1" d="M353.88,1079.96c-9.46-.02-18.9-1.2-28.08-3.48s-17.41-5.35-25.61-9.28-15.88-8.53-23.26-13.69-14.22-10.71-20.82-16.68c-6.35-5.75-12.4-11.83-18.18-18.14-5.44-5.93-10.64-12.08-15.65-18.37-4.42-5.55-8.69-11.21-12.84-16.96-3.42-4.72-6.76-9.5-10.08-14.28-3.9-5.61-7.79-11.22-11.6-16.89-4.5-6.71-8.89-13.5-13.12-20.39-4.78-7.8-9.35-15.73-13.65-23.81-4.64-8.72-8.97-17.6-12.91-26.65-4.2-9.65-7.96-19.49-11.19-29.51s-6.17-21.1-8.28-31.88c-2.2-11.22-3.65-22.58-4.26-33.99-.29-5.41-.4-10.83-.31-16.24.07-3.8.21-7.6.32-11.41.24-8.86.26-17.74-.63-26.57-.97-9.67-3.02-19.28-6.8-28.26-4.11-9.75-10.26-18.63-18.23-25.62-8.37-7.34-18.22-12.66-27.54-18.67-4.88-3.14-9.67-6.48-13.95-10.42-2.42-2.23-4.67-4.64-6.77-7.17-3.11-3.74-5.89-7.75-8.42-11.9-3.47-5.7-6.45-11.68-9.07-17.81-3.39-7.96-6.16-16.18-8.47-24.51-2.95-10.62-5.15-21.45-6.83-32.34-1.01-6.55-1.8-13.14-2.6-19.72s-1.58-13.17-2.33-19.76c-1.43-12.64-2.74-25.29-3.94-37.96s-2.16-24.09-3.06-36.15c-.85-11.32-1.59-22.65-2.22-33.98-.6-10.73-1.09-21.46-1.48-32.2-.37-10.13-.64-20.26-.81-30.4-.16-9.53-.23-19.05-.21-28.58.02-9.03.12-18.06.31-27.09.18-8.45.43-16.9.76-25.35.31-7.98.69-15.95,1.13-23.92.42-7.5.9-14.99,1.43-22.49.5-7.02,1.05-14.05,1.65-21.06.57-6.64,1.17-13.27,1.81-19.9.6-6.19,1.23-12.39,1.88-18.58.61-5.83,1.25-11.67,1.89-17.5.6-5.48,1.21-10.96,1.81-16.44.56-5.13,1.12-10.27,1.66-15.41.51-4.86,1-9.72,1.45-14.59.42-4.55.81-9.11,1.14-13.67.32-4.31.58-8.63.78-12.95.18-4.08.3-8.17.33-12.26.04-5.42-.03-10.83.34-16.24.53-7.73,1.68-15.63,4.67-22.82,1.4-3.37,3.27-6.62,5.83-9.25,3.18-3.27,7.37-5.3,11.93-5.73,3.41-.33,6.92.15,10.29.73s6.66,1.39,9.91,2.37c7.09,2.14,13.92,5.08,20.52,8.42,7.16,3.63,14.07,7.75,20.78,12.15s13.8,9.52,20.43,14.65,12.79,10.22,18.98,15.58c5.73,4.96,11.36,10.06,16.88,15.25,4.76,4.47,9.44,9.03,14.05,13.65,3.46,3.47,6.87,6.98,10.24,10.53,1.93,2.03,3.84,4.08,5.72,6.16,4.13,4.55,8.16,9.19,12.2,13.81,7.58,8.68,15.09,17.42,22.55,26.21,6.21,7.32,12.37,14.66,18.57,21.99,5.08,6.01,10.18,12.02,15.4,17.92,4.35,4.93,8.79,9.79,13.43,14.44,3.96,3.98,8.08,7.81,12.45,11.33,3.95,3.18,8.1,6.1,12.5,8.64s8.95,4.65,13.68,6.4c7.14,2.65,14.6,4.49,22.12,5.69,10.82,1.72,21.85,2.03,32.74.84,6.77-.74,13.5-2.01,20.02-3.99,8.04-2.44,15.78-5.95,23.05-10.13,8.89-5.12,17.18-11.33,24.57-18.45,6.21-5.98,11.92-12.65,16.32-20.09,1.75-2.96,3.3-6.06,4.42-9.31.91-2.64,1.36-5.39,2.03-8.09.57-2.31,1.22-4.6,1.96-6.86.44-1.36.92-2.71,1.42-4.05.54-1.45,1.06-2.95,1.75-4.33.42-.85.93-1.66,1.41-2.48,3.35-5.71,7.02-11.22,10.87-16.6,6.56-9.15,13.71-17.88,21.42-26.09,5.53-5.89,11.36-11.46,17.48-16.73s12.09-10,18.36-14.72c7.79-5.88,15.77-11.51,23.88-16.94,9.52-6.37,19.22-12.47,29.06-18.31s20.8-11.97,31.42-17.56l-.75-.43c0,.2.02.39.02.59.02.58.05,1.15.07,1.73.04.94.08,1.89.11,2.83.05,1.29.1,2.58.16,3.86.07,1.63.13,3.26.2,4.88.08,1.95.16,3.9.23,5.85.09,2.24.18,4.49.27,6.73.1,2.54.2,5.09.3,7.63.11,2.82.22,5.64.33,8.46.12,3.08.24,6.16.36,9.24.13,3.32.26,6.65.39,9.97.14,3.54.28,7.08.42,10.61.15,3.77.29,7.53.44,11.3.15,3.97.31,7.93.46,11.9s.32,8.27.48,12.4.33,8.64.5,12.96.34,8.95.51,13.42.35,9.22.53,13.84.36,9.47.54,14.21.36,9.65.54,14.47.37,9.88.55,14.81.37,10.03.56,15.05.37,10.12.56,15.17.37,10.25.56,15.38.37,10.32.56,15.48.37,10.36.55,15.53.37,10.36.55,15.54.36,10.29.54,15.44.36,10.28.53,15.42.35,10.2.52,15.29.34,10.04.5,15.06.33,9.94.49,14.9.32,9.76.47,14.64.3,9.55.45,14.33.29,9.32.43,13.97.27,9.01.4,13.51.25,8.75.38,13.13.24,8.42.35,12.64.21,8.03.32,12.05.19,7.68.29,11.52c.09,3.63.17,7.26.25,10.89.08,3.41.15,6.81.22,10.22.06,3.17.12,6.33.18,9.5.05,2.9.1,5.8.13,8.7.04,2.64.07,5.29.09,7.93.02,2.36.04,4.72.05,7.07,0,2.05,0,4.1,0,6.15,0,1.74-.02,3.49-.05,5.23-.02,1.41-.05,2.83-.1,4.24-.14,4.03-.27,8.05-.47,12.08-.31,6.08-.8,12.16-1.63,18.19-.98,7.12-2.39,14.19-4.34,21.11-2.22,7.88-5.13,15.57-8.76,22.91-3.91,7.89-8.63,15.38-14.19,22.21s-11.24,12.53-17.03,18.64-11.33,12.22-16.12,19.05c-4.1,5.84-7.61,12.08-10.4,18.64-2.57,6.06-4.52,12.36-5.9,18.8s-2.17,12.79-2.64,19.26-.61,13.27-.61,19.9c0,6.98.14,13.96.2,20.94.07,7.39.05,14.77-.23,22.15-.3,7.86-.89,15.71-1.89,23.51s-2.31,14.93-4.07,22.27c-1.19,4.99-2.57,9.94-4.14,14.84-1.77,5.54-3.78,11.01-6.01,16.39-2.5,6.05-5.29,11.99-8.32,17.8-3.36,6.46-7.03,12.75-10.95,18.88-4.41,6.89-9.14,13.57-14.15,20.04-5.57,7.19-11.48,14.12-17.65,20.8-.81.88-1.63,1.75-2.45,2.63-.39.42-.48.62-.51,1.14s-.06,1.04-.1,1.56c-.09,1.35-.21,2.71-.34,4.06-.39,3.89-.97,7.77-1.71,11.61-.98,5.12-2.25,10.19-3.8,15.16-1.85,5.94-4.11,11.76-6.78,17.38-3.02,6.36-6.57,12.46-10.62,18.22-4.51,6.4-9.65,12.34-15.33,17.73-1.65,1.57-3.35,3.06-5.13,4.49-2.73,2.19-5.57,4.25-8.48,6.2-4.2,2.81-8.55,5.4-13.02,7.75-5.54,2.92-11.27,5.47-17.15,7.62-6.72,2.45-13.63,4.37-20.67,5.67s-14.52,2.01-21.84,2c-.64,0-.64,1,0,1,9.04,0,18.07-1.02,26.89-3.02,7.79-1.76,15.4-4.27,22.74-7.4,6.13-2.61,12.07-5.65,17.77-9.09,4.15-2.5,8.18-5.2,12.04-8.13,1.92-1.46,3.83-2.97,5.62-4.58,6.29-5.66,11.93-12.07,16.86-18.95,4.71-6.58,8.76-13.62,12.1-20.99,2.9-6.37,5.28-12.97,7.16-19.7,1.5-5.38,2.67-10.85,3.51-16.37.55-3.65.97-7.32,1.2-11,.04-.55.07-1.09.09-1.64l-.15.35c5.47-5.78,10.74-11.74,15.77-17.91,4.59-5.62,8.98-11.41,13.13-17.36,3.78-5.42,7.36-10.98,10.72-16.67,3.05-5.18,5.92-10.48,8.57-15.88,2.41-4.9,4.64-9.89,6.68-14.95,1.86-4.62,3.56-9.3,5.09-14.04,1.37-4.24,2.6-8.52,3.69-12.83,1.39-5.52,2.55-11.09,3.49-16.71,1.15-6.88,1.97-13.82,2.5-20.78.5-6.52.75-13.06.84-19.59.09-6.2.04-12.4-.04-18.6s-.16-11.84-.14-17.76.15-11.45.53-17.16.99-11.1,2-16.58,2.4-10.91,4.24-16.18c1.94-5.55,4.39-10.9,7.29-16.01,3.31-5.82,7.21-11.29,11.51-16.42,4.65-5.54,9.69-10.73,14.68-15.97s9.86-10.47,14.25-16.17c4.63-6,8.61-12.5,12.01-19.27,3.15-6.28,5.78-12.82,7.89-19.53,1.92-6.09,3.41-12.31,4.53-18.6.98-5.53,1.68-11.11,2.15-16.7.39-4.68.63-9.37.8-14.07.09-2.42.19-4.84.26-7.26.04-1.25.06-2.5.08-3.76.02-1.5.03-3,.04-4.5,0-1.73,0-3.45,0-5.18,0-1.95-.01-3.89-.03-5.84-.02-2.16-.04-4.32-.06-6.48-.03-2.37-.06-4.75-.1-7.12-.04-2.56-.08-5.11-.13-7.67-.05-2.74-.1-5.48-.16-8.22-.06-2.93-.12-5.86-.19-8.78-.07-3.08-.14-6.16-.21-9.24-.08-3.23-.16-6.47-.24-9.7s-.17-6.76-.26-10.14-.19-7.07-.29-10.6-.2-7.29-.31-10.93-.22-7.52-.33-11.28-.23-7.77-.35-11.66-.24-7.93-.36-11.9-.25-8.11-.38-12.17-.26-8.27-.4-12.4-.27-8.45-.41-12.68-.28-8.53-.42-12.8-.29-8.63-.43-12.95-.3-8.72-.44-13.07-.3-8.82-.46-13.24-.31-8.82-.46-13.24-.31-8.85-.47-13.28-.32-8.9-.47-13.35-.32-8.85-.48-13.27-.32-8.81-.48-13.22-.32-8.77-.48-13.15-.32-8.74-.48-13.11-.32-8.61-.48-12.91-.32-8.5-.47-12.75-.31-8.42-.47-12.63-.31-8.23-.46-12.35-.3-8.07-.46-12.1-.3-7.88-.45-11.83-.29-7.72-.44-11.58-.29-7.46-.43-11.19-.28-7.22-.42-10.83-.27-7-.41-10.5-.26-6.69-.39-10.03-.25-6.39-.37-9.58-.24-6.07-.36-9.11-.23-5.77-.34-8.65c-.11-2.69-.21-5.39-.32-8.08-.1-2.51-.2-5.01-.3-7.52-.09-2.31-.18-4.62-.27-6.93-.08-2.12-.17-4.23-.25-6.35-.08-1.89-.15-3.78-.23-5.67-.07-1.67-.13-3.33-.2-5-.06-1.44-.12-2.88-.17-4.32-.05-1.19-.1-2.38-.14-3.57-.04-.94-.08-1.87-.11-2.81-.03-.68-.05-1.35-.08-2.03-.02-.41-.03-.81-.05-1.22,0-.12,0-.25-.01-.37-.02-.39-.41-.61-.75-.43-11.47,6.04-22.79,12.38-33.91,19.05-9.77,5.85-19.38,11.96-28.81,18.34-7.93,5.37-15.74,10.93-23.36,16.73-6.13,4.67-12.14,9.49-17.96,14.54-6.45,5.61-12.56,11.59-18.34,17.89-7.39,8.06-14.25,16.59-20.56,25.52-3.63,5.13-7.1,10.4-10.26,15.84-.74,1.27-1.33,2.46-1.89,3.84-1.94,4.76-3.51,9.68-4.68,14.68-.62,2.67-1.13,5.33-2.1,7.91-1.24,3.3-2.91,6.43-4.77,9.42-4.69,7.54-10.66,14.27-17.16,20.28-7.59,7.01-16.05,13.09-25.13,18.02-6.88,3.74-14.14,6.87-21.67,9.02-7.11,2.03-14.45,3.28-21.82,3.86-11.39.91-22.9.21-34.1-2.06-6.47-1.31-12.88-3.1-19.02-5.54-4.63-1.84-9.09-4.07-13.34-6.67s-8.49-5.72-12.41-9.01c-4.41-3.71-8.57-7.72-12.58-11.85-4.72-4.86-9.24-9.91-13.69-15.01-5.37-6.14-10.63-12.37-15.89-18.61-6.39-7.57-12.77-15.16-19.19-22.7-7.71-9.06-15.49-18.06-23.35-26.99-2.82-3.2-5.62-6.42-8.5-9.57-2.17-2.37-4.38-4.72-6.6-7.05-3.6-3.77-7.25-7.49-10.95-11.16-4.8-4.76-9.67-9.45-14.62-14.05-5.68-5.27-11.46-10.44-17.37-15.46-6.29-5.35-12.72-10.55-19.32-15.53s-13.5-9.85-20.55-14.32-13.65-8.22-20.84-11.64c-6.56-3.12-13.35-5.82-20.38-7.66-3.23-.85-6.5-1.51-9.81-1.92-4.17-.53-8.38-.65-12.41.77-7.45,2.63-11.94,9.47-14.51,16.61s-3.62,15.12-4.05,22.82c-.29,5.19-.19,10.37-.25,15.56-.04,4.09-.18,8.19-.37,12.28-.21,4.35-.49,8.7-.81,13.05-.35,4.6-.74,9.19-1.18,13.78-.46,4.88-.95,9.75-1.47,14.62-.55,5.2-1.11,10.39-1.69,15.59-.61,5.51-1.22,11.02-1.82,16.53-.64,5.87-1.28,11.73-1.89,17.6-.65,6.26-1.29,12.53-1.89,18.8-.64,6.65-1.24,13.31-1.8,19.96-.59,7.08-1.14,14.17-1.64,21.25-.53,7.56-1,15.12-1.41,22.69-.43,7.99-.8,15.99-1.1,23.99-.32,8.55-.56,17.1-.72,25.66C.09,301.01,0,310.1,0,319.19c0,9.59.09,19.17.27,28.75.19,10.23.49,20.45.88,30.68.41,10.8.94,21.61,1.56,32.4.66,11.44,1.43,22.87,2.32,34.29.94,12.13,1.99,24.26,3.16,36.37,1.23,12.78,2.58,25.55,4.05,38.3s2.9,26.04,5.04,38.96c1.76,10.65,4.05,21.23,7.07,31.6,2.36,8.08,5.16,16.05,8.57,23.75,2.62,5.94,5.61,11.74,9.06,17.24,2.54,4.04,5.33,7.94,8.42,11.57,2.05,2.4,4.23,4.69,6.58,6.81,4.83,4.36,10.26,8.01,15.75,11.47,9.42,5.95,19.32,11.42,27.43,19.17,7.63,7.29,13.36,16.45,17.04,26.31,3.4,9.12,5.12,18.78,5.84,28.46.65,8.69.49,17.41.23,26.12-.29,9.67-.34,19.31.36,28.96.83,11.36,2.47,22.66,4.83,33.8s5.18,21.18,8.66,31.51,7.19,19.64,11.45,29.19c4.02,9,8.42,17.83,13.12,26.49,4.29,7.9,8.83,15.67,13.58,23.31,4.22,6.8,8.6,13.5,13.08,20.13,3.68,5.44,7.43,10.83,11.18,16.22,3.42,4.92,6.87,9.82,10.41,14.66,4.28,5.86,8.67,11.63,13.23,17.27,5.09,6.3,10.37,12.45,15.89,18.37,5.89,6.32,12.05,12.38,18.52,18.1s13.7,11.44,21.09,16.44c7.44,5.04,15.26,9.54,23.43,13.28,8.31,3.8,16.99,6.83,25.91,8.84s17.19,2.91,25.89,2.93c.64,0,.64-1,0-1Z"/>
</svg>